<svg width="149" height="24" viewBox="0 0 149 24" fill="none" xmlns="http://www.w3.org/2000/svg">
<path d="M20.25 4.5H5.25C4.85218 4.5 4.47064 4.65804 4.18934 4.93934C3.90804 5.22064 3.75 5.60218 3.75 6V17.25C3.75 17.4489 3.67098 17.6397 3.53033 17.7803C3.38968 17.921 3.19891 18 3 18C2.80109 18 2.61032 17.921 2.46967 17.7803C2.32902 17.6397 2.25 17.4489 2.25 17.25V8.25C2.25 8.05109 2.17098 7.86032 2.03033 7.71967C1.88968 7.57902 1.69891 7.5 1.5 7.5C1.30109 7.5 1.11032 7.57902 0.96967 7.71967C0.829018 7.86032 0.75 8.05109 0.75 8.25V17.2603C0.752727 17.8553 0.990983 18.4249 1.41264 18.8446C1.83431 19.2644 2.40505 19.5 3 19.5H19.5C20.0967 19.5 20.669 19.2629 21.091 18.841C21.5129 18.419 21.75 17.8467 21.75 17.25V6C21.75 5.60218 21.592 5.22064 21.3107 4.93934C21.0294 4.65804 20.6478 4.5 20.25 4.5ZM16.5 14.25H9C8.80109 14.25 8.61032 14.171 8.46967 14.0303C8.32902 13.8897 8.25 13.6989 8.25 13.5C8.25 13.3011 8.32902 13.1103 8.46967 12.9697C8.61032 12.829 8.80109 12.75 9 12.75H16.5C16.6989 12.75 16.8897 12.829 17.0303 12.9697C17.171 13.1103 17.25 13.3011 17.25 13.5C17.25 13.6989 17.171 13.8897 17.0303 14.0303C16.8897 14.171 16.6989 14.25 16.5 14.25ZM16.5 11.25H9C8.80109 11.25 8.61032 11.171 8.46967 11.0303C8.32902 10.8897 8.25 10.6989 8.25 10.5C8.25 10.3011 8.32902 10.1103 8.46967 9.96967C8.61032 9.82902 8.80109 9.75 9 9.75H16.5C16.6989 9.75 16.8897 9.82902 17.0303 9.96967C17.171 10.1103 17.25 10.3011 17.25 10.5C17.25 10.6989 17.171 10.8897 17.0303 11.0303C16.8897 11.171 16.6989 11.25 16.5 11.25Z" fill="#F1F5F9"/>
<path d="M36.434 6.214C37.25 6.262 37.85 6.286 38.234 6.286C38.618 6.286 39.212 6.262 40.016 6.214V6.898C39.536 6.91 39.2 7.072 39.008 7.384C38.816 7.684 38.72 8.146 38.72 8.77V17.5H37.964L32.33 9.184V14.98C32.33 15.604 32.426 16.072 32.618 16.384C32.81 16.696 33.146 16.858 33.626 16.87V17.554L32.816 17.5C32.216 17.476 31.892 17.464 31.844 17.464C31.784 17.464 31.466 17.476 30.89 17.5L30.044 17.554V16.87C30.524 16.858 30.86 16.696 31.052 16.384C31.256 16.06 31.358 15.592 31.358 14.98V8.212C31.358 7.816 31.238 7.504 30.998 7.276C30.758 7.048 30.458 6.934 30.098 6.934V6.25C30.35 6.262 30.728 6.268 31.232 6.268C31.736 6.268 32.114 6.262 32.366 6.25L37.748 14.242V8.77C37.748 8.146 37.652 7.684 37.46 7.384C37.268 7.072 36.926 6.91 36.434 6.898V6.214ZM47.3888 15.808C47.0288 16.456 46.5728 16.942 46.0208 17.266C45.4808 17.59 44.8808 17.752 44.2208 17.752C43.2728 17.752 42.5228 17.41 41.9708 16.726C41.4308 16.042 41.1608 15.07 41.1608 13.81C41.1608 12.742 41.3228 11.854 41.6468 11.146C41.9708 10.426 42.4028 9.898 42.9428 9.562C43.4828 9.214 44.0828 9.04 44.7428 9.04C45.7988 9.04 46.4948 9.418 46.8308 10.174C47.1668 10.93 47.3348 11.908 47.3348 13.108H42.7628V13.486C42.7628 14.506 42.9248 15.286 43.2488 15.826C43.5728 16.354 44.0288 16.618 44.6168 16.618C45.4688 16.618 46.2548 16.258 46.9748 15.538L47.3888 15.808ZM44.4908 9.688C43.5308 9.688 42.9668 10.588 42.7988 12.388H45.7328C45.6848 10.588 45.2708 9.688 44.4908 9.688ZM60.1005 9.832C59.7765 9.844 59.5305 9.904 59.3625 10.012C59.1945 10.12 59.0745 10.3 59.0025 10.552L57.2025 17.5H55.7985L54.0525 12.118L52.3785 17.5H50.9565L49.1925 10.552C49.1205 10.3 49.0005 10.12 48.8325 10.012C48.6645 9.904 48.4185 9.844 48.0945 9.832V9.22C48.8145 9.268 49.4445 9.292 49.9845 9.292C50.5365 9.292 51.2265 9.268 52.0545 9.22V9.832C51.6345 9.856 51.3405 9.928 51.1725 10.048C51.0045 10.156 50.9205 10.336 50.9205 10.588C50.9205 10.708 50.9505 10.9 51.0105 11.164L52.0725 16.114H52.0905L54.1605 9.292H54.8265L56.9325 16.006H56.9505L58.1205 11.164C58.1685 10.972 58.1925 10.786 58.1925 10.606C58.1925 10.354 58.1085 10.168 57.9405 10.048C57.7725 9.928 57.4785 9.856 57.0585 9.832V9.22L57.7065 9.256C58.2345 9.28 58.5645 9.292 58.6965 9.292C58.9965 9.292 59.3325 9.274 59.7045 9.238L60.1005 9.22V9.832ZM63.7844 9.04C64.5044 9.04 65.1704 9.208 65.7824 9.544C65.6864 10.084 65.6384 10.756 65.6384 11.56H64.9724C64.9244 11.008 64.7744 10.558 64.5224 10.21C64.2704 9.862 63.9404 9.688 63.5324 9.688C63.1724 9.688 62.8724 9.808 62.6324 10.048C62.4044 10.276 62.2904 10.582 62.2904 10.966C62.2904 11.398 62.4464 11.74 62.7584 11.992C63.0704 12.232 63.5084 12.478 64.0724 12.73C64.6844 12.97 65.1644 13.282 65.5124 13.666C65.8724 14.038 66.0524 14.548 66.0524 15.196C66.0524 16.06 65.7584 16.702 65.1704 17.122C64.5944 17.53 63.8684 17.734 62.9924 17.734C62.2724 17.734 61.5284 17.56 60.7604 17.212C60.7604 16.324 60.7244 15.556 60.6524 14.908H61.3904C61.6904 16.36 62.3144 17.086 63.2624 17.086C63.6464 17.086 63.9584 16.954 64.1984 16.69C64.4504 16.426 64.5764 16.09 64.5764 15.682C64.5764 15.358 64.5044 15.088 64.3604 14.872C64.2164 14.656 64.0304 14.482 63.8024 14.35C63.5744 14.218 63.2564 14.062 62.8484 13.882C62.2604 13.618 61.7804 13.3 61.4084 12.928C61.0484 12.556 60.8684 12.034 60.8684 11.362C60.8684 10.57 61.1564 9.988 61.7324 9.616C62.3084 9.232 62.9924 9.04 63.7844 9.04ZM79.8942 16.15C79.9542 16.354 80.0742 16.528 80.2542 16.672C80.4462 16.804 80.6922 16.87 80.9922 16.87V17.554C80.1282 17.494 79.4442 17.464 78.9402 17.464C78.4602 17.464 77.8002 17.494 76.9602 17.554V16.87C77.3802 16.846 77.6802 16.792 77.8602 16.708C78.0402 16.624 78.1302 16.48 78.1302 16.276C78.1302 16.18 78.1002 16.03 78.0402 15.826L77.5362 14.17H73.8282L73.3422 15.826C73.2822 16.042 73.2522 16.198 73.2522 16.294C73.2522 16.498 73.3362 16.642 73.5042 16.726C73.6722 16.798 73.9722 16.846 74.4042 16.87V17.554C74.0682 17.53 73.8462 17.518 73.7382 17.518C73.3062 17.482 72.9762 17.464 72.7482 17.464C72.5442 17.464 72.2082 17.482 71.7402 17.518C71.6442 17.518 71.4282 17.53 71.0922 17.554V16.87C71.3802 16.87 71.6262 16.798 71.8302 16.654C72.0342 16.51 72.1722 16.336 72.2442 16.132L75.2682 6.196H76.7262L79.8942 16.15ZM77.2842 13.378L75.7002 8.158H75.6282L74.0802 13.378H77.2842ZM88.3844 10.39C88.2524 10.39 88.0544 10.402 87.7904 10.426C88.0064 10.822 88.1144 11.254 88.1144 11.722C88.1144 12.79 87.8204 13.6 87.2324 14.152C86.6444 14.704 85.8884 14.98 84.9644 14.98C84.7364 14.98 84.4544 14.956 84.1184 14.908C83.9624 14.98 83.8424 15.082 83.7584 15.214C83.6864 15.346 83.6504 15.478 83.6504 15.61C83.6504 16.054 84.0464 16.276 84.8384 16.276H86.7824C87.5624 16.276 88.1504 16.444 88.5464 16.78C88.9424 17.116 89.1404 17.578 89.1404 18.166C89.1404 18.694 88.9784 19.198 88.6544 19.678C88.3424 20.158 87.8804 20.542 87.2684 20.83C86.6684 21.13 85.9664 21.28 85.1624 21.28C84.1904 21.28 83.3984 21.088 82.7864 20.704C82.1864 20.32 81.8864 19.81 81.8864 19.174C81.8864 18.742 81.9944 18.346 82.2104 17.986C82.4384 17.638 82.7324 17.362 83.0924 17.158C82.7924 16.87 82.6424 16.498 82.6424 16.042C82.6424 15.754 82.7144 15.49 82.8584 15.25C83.0144 15.01 83.2244 14.824 83.4884 14.692C82.6364 14.308 82.2104 13.528 82.2104 12.352C82.2104 11.272 82.5104 10.45 83.1104 9.886C83.7104 9.322 84.4664 9.04 85.3784 9.04C85.8944 9.04 86.3384 9.112 86.7104 9.256C87.6704 9.532 88.4924 9.67 89.1764 9.67V10.408L88.3844 10.39ZM85.3064 14.332C85.7504 14.332 86.0744 14.104 86.2784 13.648C86.4824 13.192 86.5844 12.598 86.5844 11.866C86.5844 10.438 86.0804 9.724 85.0724 9.724C84.6164 9.724 84.2864 9.964 84.0824 10.444C83.8904 10.912 83.7944 11.518 83.7944 12.262C83.7944 13.642 84.2984 14.332 85.3064 14.332ZM84.9284 17.698C84.4844 17.698 84.1004 17.644 83.7764 17.536C83.4884 17.884 83.3444 18.328 83.3444 18.868C83.3444 19.324 83.5244 19.714 83.8844 20.038C84.2444 20.374 84.8204 20.542 85.6124 20.542C86.2124 20.542 86.7284 20.368 87.1604 20.02C87.6044 19.672 87.8264 19.246 87.8264 18.742C87.8264 18.382 87.7124 18.118 87.4844 17.95C87.2684 17.782 86.9024 17.698 86.3864 17.698H84.9284ZM96.611 10.39C96.479 10.39 96.281 10.402 96.017 10.426C96.233 10.822 96.341 11.254 96.341 11.722C96.341 12.79 96.047 13.6 95.459 14.152C94.871 14.704 94.115 14.98 93.191 14.98C92.963 14.98 92.681 14.956 92.345 14.908C92.189 14.98 92.069 15.082 91.985 15.214C91.913 15.346 91.877 15.478 91.877 15.61C91.877 16.054 92.273 16.276 93.065 16.276H95.009C95.789 16.276 96.377 16.444 96.773 16.78C97.169 17.116 97.367 17.578 97.367 18.166C97.367 18.694 97.205 19.198 96.881 19.678C96.569 20.158 96.107 20.542 95.495 20.83C94.895 21.13 94.193 21.28 93.389 21.28C92.417 21.28 91.625 21.088 91.013 20.704C90.413 20.32 90.113 19.81 90.113 19.174C90.113 18.742 90.221 18.346 90.437 17.986C90.665 17.638 90.959 17.362 91.319 17.158C91.019 16.87 90.869 16.498 90.869 16.042C90.869 15.754 90.941 15.49 91.085 15.25C91.241 15.01 91.451 14.824 91.715 14.692C90.863 14.308 90.437 13.528 90.437 12.352C90.437 11.272 90.737 10.45 91.337 9.886C91.937 9.322 92.693 9.04 93.605 9.04C94.121 9.04 94.565 9.112 94.937 9.256C95.897 9.532 96.719 9.67 97.403 9.67V10.408L96.611 10.39ZM93.533 14.332C93.977 14.332 94.301 14.104 94.505 13.648C94.709 13.192 94.811 12.598 94.811 11.866C94.811 10.438 94.307 9.724 93.299 9.724C92.843 9.724 92.513 9.964 92.309 10.444C92.117 10.912 92.021 11.518 92.021 12.262C92.021 13.642 92.525 14.332 93.533 14.332ZM93.155 17.698C92.711 17.698 92.327 17.644 92.003 17.536C91.715 17.884 91.571 18.328 91.571 18.868C91.571 19.324 91.751 19.714 92.111 20.038C92.471 20.374 93.047 20.542 93.839 20.542C94.439 20.542 94.955 20.368 95.387 20.02C95.831 19.672 96.053 19.246 96.053 18.742C96.053 18.382 95.939 18.118 95.711 17.95C95.495 17.782 95.129 17.698 94.613 17.698H93.155ZM103.416 9.04C103.728 9.04 103.98 9.088 104.172 9.184C104.088 10.384 104.034 10.99 104.01 11.002H103.434C103.422 10.894 103.356 10.81 103.236 10.75C103.128 10.69 102.99 10.66 102.822 10.66C102.498 10.66 102.186 10.786 101.886 11.038C101.598 11.278 101.358 11.692 101.166 12.28V15.502C101.166 15.898 101.196 16.192 101.256 16.384C101.316 16.564 101.448 16.696 101.652 16.78C101.868 16.864 102.21 16.912 102.678 16.924V17.554C102.558 17.542 102.39 17.536 102.174 17.536C101.502 17.488 100.938 17.464 100.482 17.464C100.026 17.464 99.4615 17.488 98.7895 17.536L98.3575 17.554V16.924C98.7535 16.912 99.0415 16.864 99.2215 16.78C99.4015 16.696 99.5155 16.564 99.5635 16.384C99.6235 16.192 99.6535 15.898 99.6535 15.502V11.29C99.6535 10.966 99.6235 10.726 99.5635 10.57C99.5155 10.402 99.3955 10.282 99.2035 10.21C99.0235 10.138 98.7415 10.102 98.3575 10.102V9.49L100.752 9.04L101.076 9.166V11.236C101.676 9.772 102.456 9.04 103.416 9.04ZM111.356 15.808C110.996 16.456 110.54 16.942 109.988 17.266C109.448 17.59 108.848 17.752 108.188 17.752C107.24 17.752 106.49 17.41 105.938 16.726C105.398 16.042 105.128 15.07 105.128 13.81C105.128 12.742 105.29 11.854 105.614 11.146C105.938 10.426 106.37 9.898 106.91 9.562C107.45 9.214 108.05 9.04 108.71 9.04C109.766 9.04 110.462 9.418 110.798 10.174C111.134 10.93 111.302 11.908 111.302 13.108H106.73V13.486C106.73 14.506 106.892 15.286 107.216 15.826C107.54 16.354 107.996 16.618 108.584 16.618C109.436 16.618 110.222 16.258 110.942 15.538L111.356 15.808ZM108.458 9.688C107.498 9.688 106.934 10.588 106.766 12.388H109.7C109.652 10.588 109.238 9.688 108.458 9.688ZM118.847 10.39C118.715 10.39 118.517 10.402 118.253 10.426C118.469 10.822 118.577 11.254 118.577 11.722C118.577 12.79 118.283 13.6 117.695 14.152C117.107 14.704 116.351 14.98 115.427 14.98C115.199 14.98 114.917 14.956 114.581 14.908C114.425 14.98 114.305 15.082 114.221 15.214C114.149 15.346 114.113 15.478 114.113 15.61C114.113 16.054 114.509 16.276 115.301 16.276H117.245C118.025 16.276 118.613 16.444 119.009 16.78C119.405 17.116 119.603 17.578 119.603 18.166C119.603 18.694 119.441 19.198 119.117 19.678C118.805 20.158 118.343 20.542 117.731 20.83C117.131 21.13 116.429 21.28 115.625 21.28C114.653 21.28 113.861 21.088 113.249 20.704C112.649 20.32 112.349 19.81 112.349 19.174C112.349 18.742 112.457 18.346 112.673 17.986C112.901 17.638 113.195 17.362 113.555 17.158C113.255 16.87 113.105 16.498 113.105 16.042C113.105 15.754 113.177 15.49 113.321 15.25C113.477 15.01 113.687 14.824 113.951 14.692C113.099 14.308 112.673 13.528 112.673 12.352C112.673 11.272 112.973 10.45 113.573 9.886C114.173 9.322 114.929 9.04 115.841 9.04C116.357 9.04 116.801 9.112 117.173 9.256C118.133 9.532 118.955 9.67 119.639 9.67V10.408L118.847 10.39ZM115.769 14.332C116.213 14.332 116.537 14.104 116.741 13.648C116.945 13.192 117.047 12.598 117.047 11.866C117.047 10.438 116.543 9.724 115.535 9.724C115.079 9.724 114.749 9.964 114.545 10.444C114.353 10.912 114.257 11.518 114.257 12.262C114.257 13.642 114.761 14.332 115.769 14.332ZM115.391 17.698C114.947 17.698 114.563 17.644 114.239 17.536C113.951 17.884 113.807 18.328 113.807 18.868C113.807 19.324 113.987 19.714 114.347 20.038C114.707 20.374 115.283 20.542 116.075 20.542C116.675 20.542 117.191 20.368 117.623 20.02C118.067 19.672 118.289 19.246 118.289 18.742C118.289 18.382 118.175 18.118 117.947 17.95C117.731 17.782 117.365 17.698 116.849 17.698H115.391ZM126.304 15.484C126.304 15.88 126.328 16.174 126.376 16.366C126.436 16.546 126.556 16.678 126.736 16.762C126.916 16.846 127.204 16.9 127.6 16.924V17.536C127.192 17.5 126.79 17.482 126.394 17.482C125.866 17.482 125.386 17.506 124.954 17.554V15.97C124.738 16.51 124.408 16.942 123.964 17.266C123.532 17.578 123.1 17.734 122.668 17.734C121.216 17.734 120.49 17.02 120.49 15.592C120.49 14.68 120.844 14.008 121.552 13.576C122.272 13.132 123.358 12.91 124.81 12.91V11.362C124.81 10.786 124.708 10.366 124.504 10.102C124.312 9.826 123.994 9.688 123.55 9.688C123.106 9.688 122.764 9.88 122.524 10.264C122.284 10.636 122.164 11.188 122.164 11.92H121.336V9.58C122.176 9.22 122.974 9.04 123.73 9.04C124.558 9.04 125.194 9.232 125.638 9.616C126.082 9.988 126.304 10.612 126.304 11.488V15.484ZM123.064 16.6C123.448 16.6 123.79 16.468 124.09 16.204C124.402 15.928 124.636 15.544 124.792 15.052V13.576C123.76 13.576 123.04 13.732 122.632 14.044C122.236 14.356 122.038 14.806 122.038 15.394C122.038 16.198 122.38 16.6 123.064 16.6ZM133.263 16.852C132.579 17.44 131.841 17.734 131.049 17.734C130.437 17.734 130.011 17.53 129.771 17.122C129.543 16.702 129.429 16.12 129.429 15.376V10.048H128.097V9.526L129.393 9.13L130.059 6.934H130.941V9.274H132.975V10.048H130.941V15.034C130.941 15.55 131.001 15.958 131.121 16.258C131.241 16.546 131.475 16.69 131.823 16.69C132.063 16.69 132.267 16.666 132.435 16.618C132.615 16.57 132.813 16.486 133.029 16.366L133.263 16.852ZM137.786 9.04C138.782 9.04 139.532 9.37 140.036 10.03C140.552 10.678 140.81 11.65 140.81 12.946C140.81 14.482 140.486 15.664 139.838 16.492C139.202 17.32 138.332 17.734 137.228 17.734C136.196 17.734 135.416 17.404 134.888 16.744C134.36 16.072 134.096 15.094 134.096 13.81C134.096 12.274 134.426 11.098 135.086 10.282C135.746 9.454 136.646 9.04 137.786 9.04ZM137.408 9.706C136.796 9.706 136.358 10.036 136.094 10.696C135.83 11.344 135.698 12.328 135.698 13.648C135.698 14.728 135.848 15.568 136.148 16.168C136.46 16.768 136.922 17.068 137.534 17.068C138.638 17.068 139.19 15.748 139.19 13.108C139.19 12.016 139.04 11.176 138.74 10.588C138.452 10 138.008 9.706 137.408 9.706ZM146.992 9.04C147.304 9.04 147.556 9.088 147.748 9.184C147.664 10.384 147.61 10.99 147.586 11.002H147.01C146.998 10.894 146.932 10.81 146.812 10.75C146.704 10.69 146.566 10.66 146.398 10.66C146.074 10.66 145.762 10.786 145.462 11.038C145.174 11.278 144.934 11.692 144.742 12.28V15.502C144.742 15.898 144.772 16.192 144.832 16.384C144.892 16.564 145.024 16.696 145.228 16.78C145.444 16.864 145.786 16.912 146.254 16.924V17.554C146.134 17.542 145.966 17.536 145.75 17.536C145.078 17.488 144.514 17.464 144.058 17.464C143.602 17.464 143.038 17.488 142.366 17.536L141.934 17.554V16.924C142.33 16.912 142.618 16.864 142.798 16.78C142.978 16.696 143.092 16.564 143.14 16.384C143.2 16.192 143.23 15.898 143.23 15.502V11.29C143.23 10.966 143.2 10.726 143.14 10.57C143.092 10.402 142.972 10.282 142.78 10.21C142.6 10.138 142.318 10.102 141.934 10.102V9.49L144.328 9.04L144.652 9.166V11.236C145.252 9.772 146.032 9.04 146.992 9.04Z" fill="white"/>
<path d="M29 22.54H148.09V23.44H29V22.54Z" fill="white"/>
</svg>
